<?xml version="1.0" encoding="UTF-8"?>
<svg id="Layer_1" data-name="Layer 1" xmlns="http://www.w3.org/2000/svg" viewBox="0 0 544.22 544.22">
  <path style="fill: #ff9248;" d="m272.11,0C2.1,0,0,121.83,0,272.11s2.1,272.11,272.11,272.11,272.11-121.83,272.11-272.11S542.12,0,272.11,0Z"/>
  <path style="fill: #fff;" d="m434.26,316.49l-134.43-197.63c-10.46-15.31-31.35-19.24-46.66-8.78-3.45,2.35-6.42,5.33-8.78,8.78l-134.43,197.63c-10.23,15.04-6.33,35.53,8.71,45.77,1.01.69,2.05,1.32,3.13,1.88l134.43,71.87c9.92,5.32,21.84,5.32,31.75,0l134.43-71.87c16.08-8.5,22.23-28.44,13.73-44.52-.57-1.08-1.2-2.12-1.88-3.13Zm-301.63,28.68c-2.81-1.52-4.84-4.16-5.6-7.26-.84-3.27-.24-6.74,1.66-9.53l127.1-186.87c1.52-2.25,5.13-1.2,5.13,1.49v261.58c0,4.13-4.57,6.74-8.3,4.74l-119.99-64.16Z"/>
</svg>