
<svg width="100px" height="100px" viewBox="0 0 100 100" version="1.1" xmlns="http://www.w3.org/2000/svg" xmlns:xlink="http://www.w3.org/1999/xlink">
    <defs>
        <linearGradient x1="22.2871094%" y1="17.3261719%" x2="97.6181641%" y2="97.1835938%" id="linearGradient-1">
            <stop stop-color="#E5422B" offset="0%"></stop>
            <stop stop-color="#754796" offset="73.599775%"></stop>
            <stop stop-color="#184CEF" offset="100%"></stop>
        </linearGradient>
    </defs>
    <g id="Page-1" stroke="none" stroke-width="1" fill="none" fill-rule="evenodd">
        <rect id="Rectangle" fill="url(#linearGradient-1)" x="0" y="0" width="100" height="100" rx="10"></rect>
        <g id="54776" transform="translate(10.000000, 15.000000)" fill="#FFFFFF" fill-rule="nonzero">
            <path d="M20.5283995,46.9384477 L6.69516134,35.7143349 L20.5283995,24.4902221 C21.5782528,23.4632562 21.5782528,21.7971903 20.5283995,20.7702244 C19.4784155,19.7432585 17.7782673,19.7432585 16.7282833,20.7702244 L0.763196214,33.7220316 C0.203579328,34.2702625 -0.0335686175,34.9977403 0.0038001496,35.714466 C-0.0335686175,36.4311917 0.203579328,37.1585384 0.763196214,37.7067693 L16.7282833,50.6584454 C17.7782673,51.6852801 19.4784155,51.6852801 20.5283995,50.6584454 C21.5782528,49.6314795 21.5782528,47.9654136 20.5283995,46.9384477 Z M59.7324865,0.354200853 C58.42189,-0.375093947 56.7440199,0.05810215 55.9872913,1.32034823 L21.7145671,66.1427408 C20.9578384,67.4048549 21.2703974,69.3343787 22.7181165,69.7463306 C24.4894182,70.2494609 25.7067175,70.0422974 26.4634462,68.7801833 L60.7360359,3.95779069 C61.4954532,2.69277363 61.0457717,1.08072468 59.7324865,0.354200853 Z M80.2340412,33.7245229 L64.2717886,20.7702244 C63.2218106,19.7432585 61.521672,19.7432585 60.471694,20.7702244 C59.421716,21.7971903 59.421716,23.4632562 60.471694,24.4902221 L74.3048536,35.7143349 L60.471694,46.9384477 C59.421716,47.9654136 59.421716,49.6314795 60.471694,50.6584454 C61.5215414,51.6852801 63.2218106,51.6852801 64.2717886,50.6584454 L80.236785,37.7067693 C80.7963987,37.1585384 81.033676,36.4310606 80.9961768,35.714466 C81.0335453,35.0001006 80.7936549,34.2727538 80.2340412,33.7245229 Z" id="Shape"></path>
        </g>
    </g>
</svg>
