<?xml version="1.0" encoding="utf-8"?>
<!-- Generator: Adobe Illustrator 28.0.0, SVG Export Plug-In . SVG Version: 6.00 Build 0)  -->
<svg version="1.1" id="Layer_1" xmlns="http://www.w3.org/2000/svg" xmlns:xlink="http://www.w3.org/1999/xlink" x="0px" y="0px"
	 viewBox="0 0 335.7 335.8" style="enable-background:new 0 0 335.7 335.8;" xml:space="preserve">
<path d="M330,212.3L195.6,14.6c-10.5-15.3-31.4-19.2-46.7-8.8c-3.4,2.3-6.4,5.3-8.8,8.8L5.7,212.3
	c-10.2,15-6.3,35.5,8.7,45.8c1,0.7,2.1,1.3,3.1,1.9L152,331.8c9.9,5.3,21.8,5.3,31.8,0l134.4-71.9c16.1-8.5,22.2-28.4,13.7-44.5
	C331.3,214.3,330.7,213.3,330,212.3z M28.4,240.9c-2.8-1.5-4.8-4.2-5.6-7.3c-0.8-3.3-0.2-6.7,1.7-9.5L151.5,37.3
	c1.5-2.2,5.1-1.2,5.1,1.5v261.6c0,4.1-4.6,6.7-8.3,4.7L28.4,240.9L28.4,240.9z"/>
</svg>
